<svg xmlns="http://www.w3.org/2000/svg" xmlns:xlink="http://www.w3.org/1999/xlink" width="500" zoomAndPan="magnify" viewBox="0 0 375 374.999991" height="500" preserveAspectRatio="xMidYMid meet" version="1.0"><defs><g/><clipPath id="f20c8daffa"><path d="M 265 41 L 327.640625 41 L 327.640625 152 L 265 152 Z M 265 41 " clip-rule="nonzero"/></clipPath><clipPath id="0a554c9630"><path d="M 53 159 L 327.640625 159 L 327.640625 306.308594 L 53 306.308594 Z M 53 159 " clip-rule="nonzero"/></clipPath><clipPath id="bd7dad3a35"><path d="M 42.640625 16.058594 L 225 16.058594 L 225 178 L 42.640625 178 Z M 42.640625 16.058594 " clip-rule="nonzero"/></clipPath></defs><g clip-path="url(#f20c8daffa)"><path fill="#a7deff" d="M 273.921875 59.546875 L 275.441406 59.546875 L 275.441406 151.746094 L 317.34375 151.746094 L 317.34375 59.546875 L 319.019531 59.546875 C 323.894531 59.546875 327.851562 55.59375 327.851562 50.71875 C 327.851562 45.839844 323.894531 41.886719 319.019531 41.886719 L 273.921875 41.886719 C 269.046875 41.886719 265.09375 45.839844 265.09375 50.71875 C 265.09375 55.59375 269.046875 59.546875 273.921875 59.546875 " fill-opacity="1" fill-rule="nonzero"/></g><g clip-path="url(#0a554c9630)"><path fill="#ffffff" d="M 318.605469 159.507812 L 273.503906 159.507812 C 268.628906 159.507812 264.675781 163.460938 264.675781 168.335938 C 264.675781 173.214844 268.628906 177.167969 273.503906 177.167969 L 275.378906 177.167969 C 274.597656 200.085938 265.308594 221.519531 249.011719 237.816406 C 231.972656 254.855469 209.3125 264.242188 185.214844 264.242188 C 161.117188 264.242188 138.457031 254.855469 121.414062 237.816406 C 106.972656 223.371094 98.03125 204.894531 95.640625 184.925781 L 53.535156 184.925781 C 59.082031 252.796875 115.914062 306.148438 185.214844 306.148438 C 257.132812 306.148438 315.628906 248.683594 317.304688 177.167969 L 318.605469 177.167969 C 323.480469 177.167969 327.433594 173.214844 327.433594 168.335938 C 327.433594 163.460938 323.480469 159.507812 318.605469 159.507812 " fill-opacity="1" fill-rule="nonzero"/></g><path fill="#a7deff" d="M 154.769531 199.164062 C 135.84375 190.902344 118.601562 191.34375 105.265625 194.390625 C 108.863281 208.691406 116.230469 221.652344 126.902344 232.328125 C 142.476562 247.902344 163.1875 256.484375 185.214844 256.484375 C 207.238281 256.484375 227.953125 247.902344 243.523438 232.328125 C 254.878906 220.980469 262.546875 206.785156 265.84375 191.371094 C 229.804688 213.625 190.898438 214.925781 154.769531 199.164062 " fill-opacity="1" fill-rule="nonzero"/><g clip-path="url(#bd7dad3a35)"><path fill="#a7deff" d="M 105.394531 168.335938 C 105.394531 163.460938 101.441406 159.507812 96.566406 159.507812 L 94.988281 159.507812 L 94.988281 83.792969 L 129.484375 83.792969 L 129.484375 72.695312 L 140.953125 72.695312 C 143.734375 77.039062 152.953125 80.230469 163.902344 80.230469 C 174.855469 80.230469 184.070312 77.039062 186.855469 72.695312 L 187.683594 72.695312 C 194.273438 72.695312 199.652344 77.859375 200 84.363281 C 197.78125 84.824219 196.113281 86.785156 196.113281 89.140625 C 196.113281 91.835938 198.296875 94.019531 200.996094 94.019531 L 219.246094 94.019531 C 221.941406 94.019531 224.128906 91.835938 224.128906 89.140625 C 224.128906 86.714844 222.359375 84.714844 220.046875 84.332031 C 219.671875 66.796875 205.304688 52.648438 187.683594 52.648438 L 184.125 52.648438 C 182.9375 47.925781 178.675781 44.421875 173.585938 44.421875 L 168.539062 44.421875 C 167.8125 43.226562 166.558594 42.390625 165.101562 42.226562 L 165.101562 26.078125 L 165.46875 26.078125 C 169.808594 26.078125 174.125 27.300781 177.609375 29.886719 C 178.878906 30.828125 180.449219 31.390625 182.152344 31.390625 C 186.484375 31.390625 189.96875 27.777344 189.765625 23.402344 C 189.582031 19.386719 186.175781 16.140625 182.15625 16.136719 C 180.535156 16.136719 179.03125 16.644531 177.792969 17.507812 C 174.273438 19.96875 170.171875 21.449219 165.878906 21.449219 L 160.558594 21.449219 C 156.265625 21.449219 152.164062 19.96875 148.644531 17.507812 C 147.40625 16.644531 145.902344 16.136719 144.28125 16.136719 C 140.261719 16.140625 136.855469 19.386719 136.671875 23.402344 C 136.46875 27.777344 139.957031 31.390625 144.285156 31.390625 C 145.988281 31.390625 147.558594 30.828125 148.828125 29.886719 C 152.3125 27.300781 156.628906 26.078125 160.96875 26.078125 L 161.332031 26.078125 L 161.332031 42.195312 L 160.648438 42.195312 C 158.972656 42.195312 157.511719 43.089844 156.699219 44.421875 L 152.683594 44.421875 C 147.589844 44.421875 143.328125 47.925781 142.140625 52.648438 L 129.484375 52.648438 L 129.484375 41.886719 L 53.085938 41.886719 L 53.085938 159.507812 L 51.46875 159.507812 C 46.59375 159.507812 42.640625 163.460938 42.640625 168.335938 C 42.640625 173.214844 46.59375 177.167969 51.46875 177.167969 L 96.566406 177.167969 C 101.441406 177.167969 105.394531 173.214844 105.394531 168.335938 " fill-opacity="1" fill-rule="nonzero"/></g><path fill="#a7deff" d="M 211.03125 98.367188 C 204.433594 105.933594 196.289062 113.117188 196.289062 121.261719 C 196.289062 129.40625 202.886719 136.003906 211.03125 136.003906 C 219.175781 136.003906 225.773438 129.40625 225.773438 121.261719 C 225.773438 113.117188 217.628906 105.933594 211.03125 98.367188 " fill-opacity="1" fill-rule="nonzero"/><path fill="#a7deff" d="M 211.03125 153.300781 C 205.917969 159.167969 199.59375 164.742188 199.59375 171.058594 C 199.59375 177.375 204.71875 182.496094 211.03125 182.496094 C 217.347656 182.496094 222.46875 177.375 222.46875 171.058594 C 222.46875 164.742188 216.144531 159.167969 211.03125 153.300781 " fill-opacity="1" fill-rule="nonzero"/><g fill="#ffffff" fill-opacity="1"><g transform="translate(65.578251, 366.45564)"><g/></g></g><g fill="#ffffff" fill-opacity="1"><g transform="translate(78.040921, 366.45564)"><g/></g></g><g fill="#ffffff" fill-opacity="1"><g transform="translate(90.530584, 366.45564)"><g><path d="M 24.09375 -19.703125 L 13.390625 -22.234375 C 9.117188 -23.242188 6.210938 -24.785156 4.671875 -26.859375 C 3.128906 -28.941406 2.359375 -31.921875 2.359375 -35.796875 C 2.359375 -41.910156 3.972656 -46.410156 7.203125 -49.296875 C 10.429688 -52.191406 15.441406 -53.640625 22.234375 -53.640625 C 25.035156 -53.640625 27.53125 -53.523438 29.71875 -53.296875 C 31.914062 -53.078125 33.941406 -52.6875 35.796875 -52.125 L 35.796875 -40.421875 C 31.523438 -41.148438 28.585938 -41.570312 26.984375 -41.6875 C 25.390625 -41.800781 23.722656 -41.859375 21.984375 -41.859375 C 19.617188 -41.859375 17.90625 -41.460938 16.84375 -40.671875 C 15.78125 -39.890625 15.25 -38.570312 15.25 -36.71875 C 15.25 -35.820312 15.414062 -35.132812 15.75 -34.65625 C 16.082031 -34.175781 16.726562 -33.828125 17.6875 -33.609375 L 27.796875 -31.25 C 30.710938 -30.570312 32.816406 -29.910156 34.109375 -29.265625 C 35.398438 -28.617188 36.4375 -27.789062 37.21875 -26.78125 C 38.125 -25.71875 38.785156 -24.34375 39.203125 -22.65625 C 39.617188 -20.96875 39.828125 -18.914062 39.828125 -16.5 C 39.828125 -10.382812 38.195312 -5.960938 34.9375 -3.234375 C 31.6875 -0.515625 26.640625 0.84375 19.796875 0.84375 C 16.304688 0.84375 12.988281 0.628906 9.84375 0.203125 C 6.707031 -0.210938 4.269531 -0.726562 2.53125 -1.34375 L 2.53125 -13.734375 C 4.769531 -12.992188 7.429688 -12.414062 10.515625 -12 C 13.609375 -11.582031 16.703125 -11.375 19.796875 -11.375 C 22.265625 -11.375 23.972656 -11.679688 24.921875 -12.296875 C 25.878906 -12.910156 26.359375 -14.144531 26.359375 -16 C 26.359375 -17.175781 26.203125 -18.03125 25.890625 -18.5625 C 25.585938 -19.101562 24.988281 -19.484375 24.09375 -19.703125 Z M 24.09375 -19.703125 "/></g></g></g><g fill="#ffffff" fill-opacity="1"><g transform="translate(131.70793, 366.45564)"><g><path d="M 13.46875 0 L -0.25 0 L 19.28125 -52.8125 L 32.84375 -52.8125 L 51.875 0 L 38.234375 0 L 35.453125 -8.84375 L 16.25 -8.84375 Z M 25.765625 -39.828125 C 25.316406 -38.265625 24.828125 -36.597656 24.296875 -34.828125 C 23.765625 -33.054688 22.878906 -30.175781 21.640625 -26.1875 L 19.453125 -19.203125 L 32.171875 -19.203125 L 29.984375 -26.1875 C 29.253906 -28.320312 28.523438 -30.582031 27.796875 -32.96875 C 27.066406 -35.351562 26.390625 -37.640625 25.765625 -39.828125 Z M 25.765625 -39.828125 "/></g></g></g><g fill="#ffffff" fill-opacity="1"><g transform="translate(183.495374, 366.45564)"><g><path d="M 33.9375 -19.625 L 24.84375 -19.625 L 24.84375 -30.15625 L 46.15625 -30.15625 L 46.15625 -2.359375 C 44.582031 -1.628906 41.773438 -0.910156 37.734375 -0.203125 C 33.691406 0.492188 30.015625 0.84375 26.703125 0.84375 C 17.546875 0.84375 11.1875 -1.257812 7.625 -5.46875 C 4.0625 -9.6875 2.28125 -16.675781 2.28125 -26.4375 C 2.28125 -35.875 4.351562 -42.765625 8.5 -47.109375 C 12.65625 -51.460938 19.28125 -53.640625 28.375 -53.640625 C 31.6875 -53.640625 34.648438 -53.566406 37.265625 -53.421875 C 39.878906 -53.285156 41.882812 -53.082031 43.28125 -52.8125 L 43.28125 -41.34375 C 41.4375 -41.519531 39.234375 -41.648438 36.671875 -41.734375 C 34.117188 -41.816406 31.351562 -41.859375 28.375 -41.859375 C 25.175781 -41.859375 22.804688 -41.578125 21.265625 -41.015625 C 19.722656 -40.453125 18.554688 -39.46875 17.765625 -38.0625 C 17.035156 -36.9375 16.515625 -35.429688 16.203125 -33.546875 C 15.898438 -31.671875 15.75 -29.300781 15.75 -26.4375 C 15.75 -23.6875 15.890625 -21.382812 16.171875 -19.53125 C 16.453125 -17.6875 16.898438 -16.203125 17.515625 -15.078125 C 18.304688 -13.554688 19.414062 -12.488281 20.84375 -11.875 C 22.269531 -11.257812 24.503906 -10.953125 27.546875 -10.953125 C 28.554688 -10.953125 29.609375 -10.992188 30.703125 -11.078125 C 31.796875 -11.160156 32.875 -11.285156 33.9375 -11.453125 Z M 33.9375 -19.625 "/></g></g></g><g fill="#ffffff" fill-opacity="1"><g transform="translate(232.167151, 366.45564)"><g><path d="M 51.96875 -26.4375 C 51.96875 -16.84375 50.015625 -9.894531 46.109375 -5.59375 C 42.203125 -1.300781 35.875 0.84375 27.125 0.84375 C 17.96875 0.84375 11.535156 -1.175781 7.828125 -5.21875 C 4.128906 -9.257812 2.28125 -16.332031 2.28125 -26.4375 C 2.28125 -36.039062 4.226562 -42.972656 8.125 -47.234375 C 12.03125 -51.503906 18.363281 -53.640625 27.125 -53.640625 C 36.269531 -53.640625 42.695312 -51.617188 46.40625 -47.578125 C 50.113281 -43.535156 51.96875 -36.488281 51.96875 -26.4375 Z M 17.09375 -15.15625 C 17.820312 -13.75 18.898438 -12.765625 20.328125 -12.203125 C 21.765625 -11.648438 24.03125 -11.375 27.125 -11.375 C 30.207031 -11.375 32.460938 -11.648438 33.890625 -12.203125 C 35.328125 -12.765625 36.410156 -13.75 37.140625 -15.15625 C 37.703125 -16.28125 38.109375 -17.738281 38.359375 -19.53125 C 38.609375 -21.332031 38.734375 -23.632812 38.734375 -26.4375 C 38.734375 -29.300781 38.609375 -31.644531 38.359375 -33.46875 C 38.109375 -35.300781 37.703125 -36.773438 37.140625 -37.890625 C 36.460938 -39.359375 35.40625 -40.382812 33.96875 -40.96875 C 32.539062 -41.5625 30.257812 -41.859375 27.125 -41.859375 C 23.976562 -41.859375 21.6875 -41.5625 20.25 -40.96875 C 18.820312 -40.382812 17.769531 -39.359375 17.09375 -37.890625 C 16.53125 -36.773438 16.125 -35.300781 15.875 -33.46875 C 15.625 -31.644531 15.5 -29.300781 15.5 -26.4375 C 15.5 -23.632812 15.625 -21.332031 15.875 -19.53125 C 16.125 -17.738281 16.53125 -16.28125 17.09375 -15.15625 Z M 17.09375 -15.15625 "/></g></g></g></svg>